# xmcd
#
# Track frame offsets:
#	150
#	15978
#	31664
#	47082
#	62398
#	80566
#	93642
#	108056
#	125454
#	142772
#	159105
#	172909
#	193197
#	205749
#	219598
#	241598
#	260088
#	286973
#	306251
#	329509
#
# Disc length: 4556 seconds
#
# Revision: 1
# Processed by: cddbd v1.5.2PL0 Copyright (c) Steve Scherf et al.
# Submitted via: audiograbber 1.83.01
#
DISCID=0511ca14
DTITLE=NCM - NCM 037
DYEAR=2006
DGENRE=
TTITLE0=Wherever We Go  - Newsboy
TTITLE1=Joy Of My Salvation  - Terry Wright
TTITLE2=Where Would I Be - Mid South Boys
TTITLE3=No One Talks  - Moya Brennan
TTITLE4=Faith Ain´t Faith  - Michell John
TTITLE5=Yes  - Kierra Kiki Sheard
TTITLE6=One Of These Days I´m Gonna Sit Down And Talk To Paul  - Clint Miller
TTITLE7=God You´re So Good  - Terry Clarck
TTITLE8=The Greatest Friend Of All  - Michael J Ramplin
TTITLE9=Replace Me  - Family Force 5
TTITLE10=He Rescued Me  - Shane Tecza
TTITLE11=Love Makes The World Beatiful  - V3
TTITLE12=God Is Watching Over Me  - Col Millington
TTITLE13=Jesus Love Is Changing Me  - Anamcarus
TTITLE14=Found My Way To You  - Jeff Batson
TTITLE15=Join The Song  - Martyn Layzell
TTITLE16=What Are They Doing In Heaven Today  - Vince Gill
TTITLE17=Red Moon  - Dan Wheeler 
TTITLE18=Give It Away  - Gaither Vocal Band And Ernie Hasse and Signature Sound
TTITLE19=Far Side Banks Of Jordan  - June Carter and Johnny Cash
EXTD=
EXTT0=
EXTT1=
EXTT2=
EXTT3=
EXTT4=
EXTT5=
EXTT6=
EXTT7=
EXTT8=
EXTT9=
EXTT10=
EXTT11=
EXTT12=
EXTT13=
EXTT14=
EXTT15=
EXTT16=
EXTT17=
EXTT18=
EXTT19=
PLAYORDER=
